<svg xmlns="http://www.w3.org/2000/svg" width="894" height="432" viewBox="0 0 894 432" font-family="-apple-system, BlinkMacSystemFont, 'Segoe UI', 'Noto Sans KR', 'Apple SD Gothic Neo', 'Malgun Gothic', sans-serif">
  <rect width="894" height="432" fill="#fbfbf9"/>
  <text x="20.0" y="30.0" font-size="16" fill="#24292f" text-anchor="start" font-weight="600">입력 모양에 따른 재귀 깊이</text>
  <text x="20.0" y="50.0" font-size="11.5" fill="#6e7781" text-anchor="start" font-weight="400">n = 100,000 · Timsort는 반복문이라 늘 1이다. 퀵은 작은 쪽만 재귀해 log2(n) 이하</text>
  <line x1="78.0" y1="370.0" x2="870.0" y2="370.0" stroke="#dfe1e4" stroke-width="1" stroke-dasharray="none"/>
  <text x="68.0" y="374.0" font-size="10.5" fill="#6e7781" text-anchor="end" font-weight="400">0</text>
  <line x1="78.0" y1="299.0" x2="870.0" y2="299.0" stroke="#dfe1e4" stroke-width="1" stroke-dasharray="none"/>
  <text x="68.0" y="303.0" font-size="10.5" fill="#6e7781" text-anchor="end" font-weight="400">5</text>
  <line x1="78.0" y1="228.0" x2="870.0" y2="228.0" stroke="#dfe1e4" stroke-width="1" stroke-dasharray="none"/>
  <text x="68.0" y="232.0" font-size="10.5" fill="#6e7781" text-anchor="end" font-weight="400">10</text>
  <line x1="78.0" y1="157.0" x2="870.0" y2="157.0" stroke="#dfe1e4" stroke-width="1" stroke-dasharray="none"/>
  <text x="68.0" y="161.0" font-size="10.5" fill="#6e7781" text-anchor="end" font-weight="400">15</text>
  <line x1="78.0" y1="86.0" x2="870.0" y2="86.0" stroke="#dfe1e4" stroke-width="1" stroke-dasharray="none"/>
  <text x="68.0" y="90.0" font-size="10.5" fill="#6e7781" text-anchor="end" font-weight="400">20</text>
  <line x1="78.0" y1="370.0" x2="870.0" y2="370.0" stroke="#6e7781" stroke-width="1" stroke-dasharray="none"/>
  <text x="20.0" y="74.0" font-size="11.5" fill="#6e7781" text-anchor="start" font-weight="400">재귀 깊이</text>
  <rect x="99.0" y="213.8" width="27.0" height="156.2" fill="#0072B2"/>
  <text x="112.5" y="208.8" font-size="9.5" fill="#6e7781" text-anchor="middle" font-weight="400">11</text>
  <rect x="129.0" y="114.4" width="27.0" height="255.6" fill="#E69F00"/>
  <text x="142.5" y="109.4" font-size="9.5" fill="#6e7781" text-anchor="middle" font-weight="400">18</text>
  <rect x="159.0" y="355.8" width="27.0" height="14.2" fill="#009E73"/>
  <text x="172.5" y="350.8" font-size="9.5" fill="#6e7781" text-anchor="middle" font-weight="400">1</text>
  <text x="144.0" y="388.0" font-size="11.5" fill="#24292f" text-anchor="middle" font-weight="400">무작위</text>
  <rect x="231.0" y="142.8" width="27.0" height="227.2" fill="#0072B2"/>
  <text x="244.5" y="137.8" font-size="9.5" fill="#6e7781" text-anchor="middle" font-weight="400">16</text>
  <rect x="261.0" y="114.4" width="27.0" height="255.6" fill="#E69F00"/>
  <text x="274.5" y="109.4" font-size="9.5" fill="#6e7781" text-anchor="middle" font-weight="400">18</text>
  <rect x="291.0" y="355.8" width="27.0" height="14.2" fill="#009E73"/>
  <text x="304.5" y="350.8" font-size="9.5" fill="#6e7781" text-anchor="middle" font-weight="400">1</text>
  <text x="276.0" y="388.0" font-size="11.5" fill="#24292f" text-anchor="middle" font-weight="400">정렬됨</text>
  <rect x="363.0" y="142.8" width="27.0" height="227.2" fill="#0072B2"/>
  <text x="376.5" y="137.8" font-size="9.5" fill="#6e7781" text-anchor="middle" font-weight="400">16</text>
  <rect x="393.0" y="114.4" width="27.0" height="255.6" fill="#E69F00"/>
  <text x="406.5" y="109.4" font-size="9.5" fill="#6e7781" text-anchor="middle" font-weight="400">18</text>
  <rect x="423.0" y="355.8" width="27.0" height="14.2" fill="#009E73"/>
  <text x="436.5" y="350.8" font-size="9.5" fill="#6e7781" text-anchor="middle" font-weight="400">1</text>
  <text x="408.0" y="388.0" font-size="11.5" fill="#24292f" text-anchor="middle" font-weight="400">역순</text>
  <rect x="495.0" y="142.8" width="27.0" height="227.2" fill="#0072B2"/>
  <text x="508.5" y="137.8" font-size="9.5" fill="#6e7781" text-anchor="middle" font-weight="400">16</text>
  <rect x="525.0" y="114.4" width="27.0" height="255.6" fill="#E69F00"/>
  <text x="538.5" y="109.4" font-size="9.5" fill="#6e7781" text-anchor="middle" font-weight="400">18</text>
  <rect x="555.0" y="355.8" width="27.0" height="14.2" fill="#009E73"/>
  <text x="568.5" y="350.8" font-size="9.5" fill="#6e7781" text-anchor="middle" font-weight="400">1</text>
  <text x="540.0" y="388.0" font-size="11.5" fill="#24292f" text-anchor="middle" font-weight="400">거의정렬</text>
  <rect x="627.0" y="157.0" width="27.0" height="213.0" fill="#0072B2"/>
  <text x="640.5" y="152.0" font-size="9.5" fill="#6e7781" text-anchor="middle" font-weight="400">15</text>
  <rect x="657.0" y="114.4" width="27.0" height="255.6" fill="#E69F00"/>
  <text x="670.5" y="109.4" font-size="9.5" fill="#6e7781" text-anchor="middle" font-weight="400">18</text>
  <rect x="687.0" y="355.8" width="27.0" height="14.2" fill="#009E73"/>
  <text x="700.5" y="350.8" font-size="9.5" fill="#6e7781" text-anchor="middle" font-weight="400">1</text>
  <text x="672.0" y="388.0" font-size="11.5" fill="#24292f" text-anchor="middle" font-weight="400">중복많음</text>
  <rect x="759.0" y="142.8" width="27.0" height="227.2" fill="#0072B2"/>
  <text x="772.5" y="137.8" font-size="9.5" fill="#6e7781" text-anchor="middle" font-weight="400">16</text>
  <rect x="789.0" y="114.4" width="27.0" height="255.6" fill="#E69F00"/>
  <text x="802.5" y="109.4" font-size="9.5" fill="#6e7781" text-anchor="middle" font-weight="400">18</text>
  <rect x="819.0" y="355.8" width="27.0" height="14.2" fill="#009E73"/>
  <text x="832.5" y="350.8" font-size="9.5" fill="#6e7781" text-anchor="middle" font-weight="400">1</text>
  <text x="804.0" y="388.0" font-size="11.5" fill="#24292f" text-anchor="middle" font-weight="400">모두같음</text>
  <line x1="78.0" y1="402.0" x2="100.0" y2="402.0" stroke="#0072B2" stroke-width="2.4" stroke-dasharray="none"/>
  <circle cx="89.0" cy="402.0" r="3" fill="#0072B2"/>
  <text x="106.0" y="406.0" font-size="11.5" fill="#24292f" text-anchor="start" font-weight="400">quickSort</text>
  <line x1="183.4" y1="402.0" x2="205.4" y2="402.0" stroke="#E69F00" stroke-width="2.4" stroke-dasharray="7 4"/>
  <circle cx="194.4" cy="402.0" r="3" fill="#E69F00"/>
  <text x="211.4" y="406.0" font-size="11.5" fill="#24292f" text-anchor="start" font-weight="400">mergeSort</text>
  <line x1="288.8" y1="402.0" x2="310.8" y2="402.0" stroke="#009E73" stroke-width="2.4" stroke-dasharray="2 3"/>
  <circle cx="299.8" cy="402.0" r="3" fill="#009E73"/>
  <text x="316.8" y="406.0" font-size="11.5" fill="#24292f" text-anchor="start" font-weight="400">timSort</text>
</svg>
